<svg xmlns="http://www.w3.org/2000/svg" xmlns:svg="http://www.w3.org/2000/svg" id="svg14" width="320" height="320" fill-rule="evenodd" clip-rule="evenodd" image-rendering="optimizeQuality" shape-rendering="geometricPrecision" text-rendering="geometricPrecision" version="1.1" viewBox="0 0 8467 8467" xml:space="preserve"><metadata id="metadata18"/><defs id="defs4"><style id="style2" type="text/css">.fil2{fill:#a79ecd}.fil1{fill:#333}</style></defs><path id="path9" fill="#333" fill-rule="evenodd" stroke-width="1" d="m 5584.171,4575.8558 c 394.9999,233 660,662 660,1154 0,740 -600.0001,1340.0001 -1339.9998,1340.0001 h -2606 l 1869,-1880.0001 c 45,-39 24,-22 95,-31 33,-5 57,-7 105,-8 212,-8 539,-114 726,-214 175,-93 348,-216 490.9998,-361 z" class="fil1" clip-rule="evenodd" image-rendering="optimizeQuality" shape-rendering="geometricPrecision" text-rendering="geometricPrecision"/><path id="path11" fill="#a79ecd" fill-rule="evenodd" stroke-width="1" d="m 4167.1712,5189.8558 c 45,-39.0001 24,-21.9999 95,-31.0001 33,-5 57,-6.9998 105,-8 212,-8 539,-114 726,-213.9998 238.9997,-128 477.9998,-311.0001 633.9996,-533.0002 59.0002,-83 137.0001,-202 178,-287 l 130.0001,-335.9999 c 21,-100 78.0001,-283.0001 78.0001,-386.0001 0,-429 8,-280 -69,-670 -28.0001,-144 -145.0001,-360 -220.0001,-486 -145.0001,-242 -319.9999,-434 -557.9997,-582 -270,-167 -494,-270 -829,-317 -291,-41 -1744,-20 -2142,-20 v 384 l 953,1 2,198 h 954 l -2,186 h -1907 v 384 l 953,1 2,197 h 953 l 1,186 h -1908 l 3,384.9998 950,0.9999 7,197 h 948 v 186 h -1905 l -4,384.0003 954,2.0003 3,184 h 953 l -5,198.9998 -1905,-8 3,2683.0001 z" class="fil2" clip-rule="evenodd" image-rendering="optimizeQuality" shape-rendering="geometricPrecision" text-rendering="geometricPrecision"/></svg>