<svg xmlns="http://www.w3.org/2000/svg" xmlns:xlink="http://www.w3.org/1999/xlink" width="7.13in" height="2.39in" color="#000" version="1.1" viewBox="0 0 513 172" xml:space="preserve"><title>BoosterMusic/02-LavendersBlue.abc (77) tune 1</title><g stroke-width=".7" font-family="Times" font-size="20" transform="scale(0.900)"><text x="285.11" y="21.67" text-anchor="middle">Lavender&apos;s Blue</text><defs><g id="rdots" fill="currentColor"><circle cx="0" cy="-9" r="1.2"/><circle cx="0" cy="-15" r="1.2"/></g></defs><use x="70.11" y="98.01" xlink:href="#rdots"/><path fill="none" stroke="currentColor" d="M66.11 98.01v-24.00"/><path fill="none" stroke="currentColor" stroke-width="3" d="M61.61 98.01v-24.00"/><path fill="none" stroke="currentColor" d="M222.91 98.01v-24.00"/><path fill="none" stroke="currentColor" d="M407.41 98.01v-24.00"/><path fill="none" stroke="currentColor" d="M559.21 98.01v-24.00"/><path fill="none" stroke="currentColor" d="M11.11 98.01h548.10m-548.10 -6h548.10m-548.10 -6h548.10m-548.10 -6h548.10m-548.10 -6h548.10"/><defs><path id="utclef" fill="currentColor" d="m-50 -90	c-72 -41 -72 -158 52 -188	c150 -10 220 188 90 256	c-114 52 -275 0 -293 -136	c-15 -181 93 -229 220 -334	c88 -87 79 -133 62 -210	c-51 33 -94 105 -89 186	c17 267 36 374 49 574	c6 96 -19 134 -77 135	c-80 1 -126 -93 -61 -133	c85 -41 133 101 31 105	c23 17 92 37 90 -92	c-10 -223 -39 -342 -50 -617	c0 -90 0 -162 96 -232	c56 72 63 230 22 289	c-74 106 -257 168 -255 316	c9 153 148 185 252 133	c86 -65 29 -192 -80 -176	c-71 12 -105 67 -59 124"/><use id="tclef" transform="scale(0.045)" xlink:href="#utclef"/></defs><use x="23.11" y="98.01" xlink:href="#tclef"/><g font-family="serif" font-size="16" font-style="normal" font-weight="bold"><text y="-1" text-anchor="middle" transform="translate(41.61,98.01) scale(1.2,1)">4</text><text y="-13" text-anchor="middle" transform="translate(41.61,98.01) scale(1.2,1)">3</text></g><defs><path id="hl" stroke="currentColor" d="m-6 0h12"/></defs><use x="88.11" y="104.01" xlink:href="#hl"/><defs><ellipse id="hd" fill="currentColor" rx="4.1" ry="2.9" transform="rotate(-20)"/></defs><use x="88.11" y="104.01" xlink:href="#hd"/><path fill="none" stroke="currentColor" d="M91.61 104.01v-20.00"/><use x="136.31" y="92.01" xlink:href="#hd"/><path fill="none" stroke="currentColor" d="M139.81 92.01v-20.00"/><use x="184.41" y="92.01" xlink:href="#hd"/><path fill="none" stroke="currentColor" d="M187.91 92.01v-20.00"/><use x="240.01" y="92.01" xlink:href="#hd"/><path fill="none" stroke="currentColor" d="M243.51 92.01v-20.00"/><path fill="currentColor" d="M291.31 75.71l92.70 7.60v3.20l-92.70 -7.60"/><use x="288.11" y="95.01" xlink:href="#hd"/><path fill="none" stroke="currentColor" d="M291.61 95.01v-18.30"/><use x="318.81" y="98.01" xlink:href="#hd"/><path fill="none" stroke="currentColor" d="M322.31 98.01v-18.80"/><use x="349.41" y="101.01" xlink:href="#hd"/><path fill="none" stroke="currentColor" d="M352.91 101.01v-19.20"/><use x="380.11" y="104.01" xlink:href="#hl"/><use x="380.11" y="104.01" xlink:href="#hd"/><path fill="none" stroke="currentColor" d="M383.61 104.01v-19.70"/><use x="424.41" y="104.01" xlink:href="#hl"/><use x="424.41" y="104.01" xlink:href="#hd"/><path fill="none" stroke="currentColor" d="M427.91 104.01v-20.00"/><use x="472.51" y="89.01" xlink:href="#hd"/><path fill="none" stroke="currentColor" d="M476.01 89.01v-20.00"/><use x="520.71" y="89.01" xlink:href="#hd"/><path fill="none" stroke="currentColor" d="M524.21 89.01v-20.00"/><path fill="none" stroke="currentColor" d="M109.31 168.01v-24.00"/><path fill="none" stroke="currentColor" d="M229.71 168.01v-24.00"/><path fill="none" stroke="currentColor" d="M376.01 168.01v-24.00"/><path fill="none" stroke="currentColor" d="M496.41 168.01v-24.00"/><path fill="none" stroke="currentColor" stroke-width="3" d="M557.71 168.01v-24.00"/><path fill="none" stroke="currentColor" d="M553.21 168.01v-24.00"/><use x="549.21" y="168.01" xlink:href="#rdots"/><path fill="none" stroke="currentColor" d="M11.11 168.01h548.10m-548.10 -6h548.10m-548.10 -6h548.10m-548.10 -6h548.10m-548.10 -6h548.10"/><use x="23.11" y="168.01" xlink:href="#tclef"/><g font-family="serif" font-size="16" font-style="normal" font-weight="bold"><text y="-1" text-anchor="middle" transform="translate(41.61,168.01) scale(1.2,1)">4</text><text y="-13" text-anchor="middle" transform="translate(41.61,168.01) scale(1.2,1)">3</text></g><defs><path id="Hd" fill="currentColor" d="m3 -1.6	c-1 -1.8 -7 1.4 -6 3.2	c1 1.8 7 -1.4 6 -3.2	m0.5 -0.3	c2 3.8 -5 7.6 -7 3.8	c-2 -3.8 5 -7.6 7 -3.8"/></defs><use x="60.11" y="159.01" xlink:href="#Hd"/><circle cx="70.11" cy="159.01" r="1.2" fill="currentColor"/><path fill="none" stroke="currentColor" d="M63.61 159.01v-20.00"/><use x="122.81" y="174.01" xlink:href="#hl"/><use x="122.81" y="174.01" xlink:href="#hd"/><path fill="none" stroke="currentColor" d="M126.31 174.01v-20.00"/><use x="161.01" y="162.01" xlink:href="#hd"/><path fill="none" stroke="currentColor" d="M164.51 162.01v-20.00"/><use x="199.21" y="162.01" xlink:href="#hd"/><path fill="none" stroke="currentColor" d="M202.71 162.01v-20.00"/><use x="243.21" y="162.01" xlink:href="#hd"/><path fill="none" stroke="currentColor" d="M246.71 162.01v-20.00"/><path fill="currentColor" d="M284.61 145.81l73.60 7.30v3.20l-73.60 -7.30"/><use x="281.41" y="165.01" xlink:href="#hd"/><path fill="none" stroke="currentColor" d="M284.91 165.01v-18.20"/><use x="305.71" y="168.01" xlink:href="#hd"/><path fill="none" stroke="currentColor" d="M309.21 168.01v-18.80"/><use x="330.01" y="171.01" xlink:href="#hd"/><path fill="none" stroke="currentColor" d="M333.51 171.01v-19.40"/><use x="354.41" y="174.01" xlink:href="#hl"/><use x="354.41" y="174.01" xlink:href="#hd"/><path fill="none" stroke="currentColor" d="M357.91 174.01v-20.00"/><use x="389.51" y="165.01" xlink:href="#hd"/><path fill="none" stroke="currentColor" d="M393.01 165.01v-20.00"/><use x="427.71" y="168.01" xlink:href="#hd"/><path fill="none" stroke="currentColor" d="M431.21 168.01v-20.00"/><use x="465.81" y="171.01" xlink:href="#hd"/><path fill="none" stroke="currentColor" d="M469.31 171.01v-20.00"/><use x="509.91" y="174.01" xlink:href="#hl"/><use x="509.91" y="174.01" xlink:href="#Hd"/><circle cx="518.91" cy="171.01" r="1.2" fill="currentColor"/><path fill="none" stroke="currentColor" d="M513.41 174.01v-20.00"/></g></svg>